<svg xmlns="http://www.w3.org/2000/svg" version="1.0" viewBox="0 0 512 512"><g transform="matrix(.1 0 0 -.1 0 512)" fill="#99c5ff" class="color000 svgShape"><path d="M2320 5109 c-577 -55 -1120 -307 -1539 -714 -218 -211 -369 -418-507 -690 -195 -388 -286 -795 -271 -1225 7 -202 28 -349 77 -545 46 -185 91
-308 181 -493 l69 -144 38 49 c75 94 183 175 286 214 l54 21 -44 92 c-133 280
-194 560 -194 884 0 181 10 281 42 437 61 301 219 633 417 878 341 422 841
700 1381 766 46 6 159 11 250 11 179 0 279 -10 435 -42 301 -61 633 -219 878
-417 422 -341 700 -841 766 -1381 14 -109 14 -391 0 -500 -47 -384 -208 -765
-448 -1063 -341 -422 -841 -700 -1381 -766 -125 -16 -402 -13 -532 5 -213 29
-417 89 -603 177 l-89 43 -47 -96 c-49 -99 -129 -198 -202 -251 l-39 -28 113
-57 c556 -279 1175 -346 1779 -194 255 64 559 198 775 342 385 256 695 609
896 1021 436 893 315 1948 -314 2727 -111 138 -304 324 -447 432 -458 343
-999 522 -1560 517 -74 -1 -173 -5 -220 -10z" fill="#99c5ff" class="color000 svgShape"></path><path d="M2415 4183 c-82 -7 -223 -34 -312 -60 l-93 -26 70 -74 c76 -81 152
-217 165 -293 l7 -42 42 6 c22 4 64 11 91 16 78 14 284 11 377 -5 414 -72 763
-373 900 -775 40 -119 58 -233 58 -370 0 -317 -116 -597 -339 -821 -224 -223
-504 -339 -821 -339 -317 0 -597 116 -821 339 -171 172 -283 386 -324 620 -19
106 -19 302 0 406 19 106 20 102 -22 109 -78 14 -216 92 -295 165 l-75 71 -26
-93 c-112 -395 -79 -792 93 -1155 387 -813 1356 -1158 2168 -772 198 95 381
231 519 388 435 496 534 1189 253 1780 -293 614 -942 986 -1615 925z" fill="#99c5ff" class="color000 svgShape"></path><path d="M1472 3754c-175-87-174-325 1-415 46-24 138-27 188-6 89 37 141 117 140 216 0 172-176 281-329 205zM2430 3246c-154-34-250-85-360-196-143-143-205-290-205-490 0-200 62-347 205-490 143-143 290-205 490-205 200 0 347 62 491 205 140 139 203 292 203 490 0 126-18 201-76 320-59 120-178 239-298 298-47 23-112 49-145 57-85 23-227 27-305 11zM865 1141c-126-32-208-161-176-279 33-128 150-201 274-173 175 39 241 252 118 384-51 56-147 86-216 68z" fill="#99c5ff" class="color000 svgShape"></path></g></svg>